<?xml version="1.0" standalone="no"?>
<!DOCTYPE svg PUBLIC "-//W3C//DTD SVG 20010904//EN"
 "http://www.w3.org/TR/2001/REC-SVG-20010904/DTD/svg10.dtd">
<svg version="1.0" xmlns="http://www.w3.org/2000/svg"
 width="500.000000pt" height="500.000000pt" viewBox="0 0 500.000000 500.000000"
 preserveAspectRatio="xMidYMid meet">

<g transform="translate(0.000000,500.000000) scale(0.100000,-0.100000)"
fill="#000000" stroke="none">
<path d="M0 2500 l0 -2500 2500 0 2500 0 0 2500 0 2500 -2500 0 -2500 0 0
-2500z m2750 495 l0 -95 65 0 65 0 0 -80 0 -80 -66 0 -66 0 4 -134 c4 -157 8
-166 79 -166 l49 0 0 -75 0 -74 -37 -8 c-21 -4 -74 -8 -118 -8 -95 1 -148 22
-182 74 -22 32 -23 44 -23 212 l0 179 -45 0 -45 0 0 80 0 80 49 0 48 0 23 88
c13 48 25 90 27 95 2 4 42 7 89 7 l84 0 0 -95z m-507 -105 c72 -27 121 -71
154 -138 25 -51 28 -68 28 -157 0 -89 -3 -106 -28 -157 -55 -112 -150 -161
-312 -161 -116 -1 -186 21 -252 78 -64 54 -88 120 -88 240 0 84 4 109 24 153
38 84 120 143 230 162 66 12 184 2 244 -20z m1147 4 c37 -11 67 -30 105 -67
61 -60 85 -122 85 -219 l0 -58 -225 0 -225 0 0 -31 c0 -20 10 -40 29 -60 25
-25 37 -29 84 -29 61 0 103 24 109 63 3 21 7 22 113 22 l110 0 -1 -43 c-3
-133 -195 -226 -401 -194 -131 21 -203 66 -251 156 -24 46 -27 61 -27 156 0
89 4 113 24 158 38 84 120 143 230 162 60 11 176 3 241 -16z m-2054 -81 c14
-49 40 -134 57 -191 l32 -103 55 191 55 190 117 0 118 0 -19 -47 c-10 -27 -63
-164 -117 -306 l-98 -258 -125 3 -125 3 -113 295 c-61 162 -112 298 -113 303
0 4 56 7 125 7 l124 0 27 -87z m2534 -408 l0 -115 -125 0 -125 0 0 115 0 115
125 0 125 0 0 -115z m-373 -206 c7 -6 13 -22 13 -35 0 -30 -29 -32 -53 -4 -14
16 -21 18 -37 10 -25 -14 -31 -25 -32 -61 -1 -37 18 -52 46 -36 19 10 19 12 4
15 -10 2 -18 12 -18 23 0 16 7 19 45 19 l46 0 -6 -37 c-10 -59 -13 -63 -42
-64 -16 0 -43 -1 -61 -1 -65 -2 -93 63 -56 133 26 52 109 72 151 38z m201 -15
c26 -29 28 -51 7 -100 -27 -66 -122 -81 -165 -27 -74 94 78 218 158 127z m96
10 c3 -9 6 -30 6 -47 0 -62 16 -61 43 2 24 55 29 61 56 61 l29 0 -46 -90 c-47
-89 -47 -90 -82 -88 -35 3 -35 4 -47 68 -18 98 -17 110 11 110 13 0 27 -7 30
-16z"/>
<path d="M2019 2737 c-31 -24 -43 -62 -43 -142 0 -84 18 -137 49 -149 28 -10
109 -6 126 7 31 24 43 62 43 142 0 119 -25 154 -109 154 -27 0 -57 -5 -66 -12z"/>
<path d="M3159 2731 c-53 -53 -43 -61 76 -61 99 0 105 1 105 20 0 12 -11 32
-25 45 -19 20 -34 25 -75 25 -44 0 -56 -5 -81 -29z"/>
<path d="M3600 2160 c-26 -26 -26 -76 0 -90 26 -14 60 19 60 60 0 41 -32 58
-60 30z"/>
</g>
</svg>
